<?xml version="1.0" standalone="no"?>
<!DOCTYPE svg PUBLIC "-//W3C//DTD SVG 20010904//EN"
 "http://www.w3.org/TR/2001/REC-SVG-20010904/DTD/svg10.dtd">
<svg version="1.0" xmlns="http://www.w3.org/2000/svg"
 width="225.000000pt" height="225.000000pt" viewBox="0 0 225.000000 225.000000"
 preserveAspectRatio="xMidYMid meet">
<metadata>
Created by potrace 1.16, written by Peter Selinger 2001-2019
</metadata>
<g transform="translate(0.000000,225.000000) scale(0.100000,-0.100000)"
fill="#000000" stroke="none">
<path d="M846 2163 c-4 -4 -4 -62 0 -130 l7 -123 -32 0 -31 0 0 -94 0 -95 -65
30 c-97 44 -130 37 -100 -20 8 -16 37 -49 64 -72 l48 -42 -32 -29 c-29 -25
-36 -27 -59 -17 -22 10 -26 19 -26 55 0 36 -5 46 -29 64 -76 54 -186 65 -261
28 -90 -46 -115 -135 -64 -236 29 -58 65 -92 134 -127 l48 -24 26 20 c27 21
56 20 56 -3 0 -7 -7 -38 -15 -68 -16 -59 -19 -199 -6 -266 7 -37 4 -47 -31
-104 -30 -51 -38 -74 -38 -112 0 -60 9 -79 70 -143 45 -47 48 -54 54 -117 19
-195 108 -350 237 -410 93 -43 151 -53 334 -52 221 0 310 25 406 111 75 68
136 209 146 342 6 70 8 75 50 116 44 44 83 114 82 150 0 32 -25 93 -54 136
l-28 39 12 89 c13 93 9 150 -15 239 -21 74 -3 93 48 53 24 -19 25 -19 64 -1
98 45 165 137 166 229 0 104 -64 156 -192 156 -117 -1 -190 -45 -190 -114 0
-31 -5 -40 -26 -50 -24 -11 -30 -9 -55 15 -16 15 -29 30 -29 33 0 3 16 17 36
31 45 30 89 94 80 116 -8 21 -47 14 -123 -21 l-53 -24 0 95 0 94 -30 0 -29 0
6 130 6 130 -280 0 c-154 0 -283 -3 -287 -7z m-339 -518 c51 -23 53 -25 46
-57 -12 -67 -79 -168 -110 -168 -54 0 -143 105 -143 167 0 81 99 109 207 58z
m1424 -4 c16 -16 29 -39 29 -51 0 -54 -80 -152 -136 -166 -21 -5 -31 -1 -50
22 -39 47 -75 123 -72 152 4 38 74 72 146 72 46 0 58 -4 83 -29z m-1001 -865
c0 -19 11 -28 59 -49 33 -14 76 -29 95 -33 l36 -6 0 -87 c0 -123 -8 -160 -34
-165 -11 -2 -66 -14 -122 -26 -128 -27 -165 -20 -233 48 -96 97 -95 244 2 295
29 15 126 38 190 46 4 1 7 -10 7 -23z m501 4 c37 -7 81 -20 97 -30 92 -56 84
-212 -16 -302 -64 -57 -101 -65 -209 -39 -50 11 -102 21 -116 21 -13 0 -29 6
-35 13 -6 7 -12 63 -13 126 l-1 112 81 29 c95 32 114 45 105 72 -5 15 -2 18
18 14 13 -3 53 -10 89 -16z m-813 -212 c5 -7 17 -40 27 -73 34 -120 104 -195
221 -236 175 -62 461 -45 597 34 75 44 135 135 152 230 4 21 15 42 26 48 17 8
19 6 19 -19 0 -38 -33 -165 -59 -224 -41 -96 -127 -165 -250 -202 -75 -22
-362 -23 -446 -1 -130 34 -213 105 -260 223 -22 56 -55 188 -55 223 0 13 16
11 28 -3z"/>
</g>
</svg>
